<mxfile host="app.diagrams.net" agent="Mozilla/5.0 (Macintosh; Intel Mac OS X 10_15_7) AppleWebKit/605.1.15 (KHTML, like Gecko) Version/16.6.1 Safari/605.1.15" version="26.0.1">
  <diagram id="C5RBs43oDa-KdzZeNtuy" name="Page-1">
    <mxGraphModel dx="906" dy="547" grid="1" gridSize="10" guides="1" tooltips="1" connect="1" arrows="1" fold="1" page="1" pageScale="1" pageWidth="827" pageHeight="1169" math="0" shadow="0">
      <root>
        <mxCell id="WIyWlLk6GJQsqaUBKTNV-0" />
        <mxCell id="WIyWlLk6GJQsqaUBKTNV-1" parent="WIyWlLk6GJQsqaUBKTNV-0" />
        <mxCell id="5wo3lFajxMeHUiyOMAY9-0" value="INICIO&lt;div&gt;&lt;br&gt;&lt;/div&gt;" style="ellipse;whiteSpace=wrap;html=1;" vertex="1" parent="WIyWlLk6GJQsqaUBKTNV-1">
          <mxGeometry x="470" y="60" width="120" height="80" as="geometry" />
        </mxCell>
        <mxCell id="5wo3lFajxMeHUiyOMAY9-3" value="" style="edgeStyle=orthogonalEdgeStyle;rounded=0;orthogonalLoop=1;jettySize=auto;html=1;exitX=0.5;exitY=1;exitDx=0;exitDy=0;" edge="1" parent="WIyWlLk6GJQsqaUBKTNV-1" source="5wo3lFajxMeHUiyOMAY9-0" target="5wo3lFajxMeHUiyOMAY9-2">
          <mxGeometry relative="1" as="geometry">
            <mxPoint x="530" y="190" as="targetPoint" />
            <mxPoint x="530" y="140" as="sourcePoint" />
          </mxGeometry>
        </mxCell>
        <mxCell id="5wo3lFajxMeHUiyOMAY9-5" value="" style="edgeStyle=orthogonalEdgeStyle;rounded=0;orthogonalLoop=1;jettySize=auto;html=1;" edge="1" parent="WIyWlLk6GJQsqaUBKTNV-1" source="5wo3lFajxMeHUiyOMAY9-2" target="5wo3lFajxMeHUiyOMAY9-4">
          <mxGeometry relative="1" as="geometry" />
        </mxCell>
        <mxCell id="5wo3lFajxMeHUiyOMAY9-2" value="CONSULTAR CPF\CNPJ DOS CLIENTES ATIVOS NO BANCO DE DADOS&amp;nbsp;" style="rounded=1;whiteSpace=wrap;html=1;" vertex="1" parent="WIyWlLk6GJQsqaUBKTNV-1">
          <mxGeometry x="450" y="160" width="160" height="70" as="geometry" />
        </mxCell>
        <mxCell id="5wo3lFajxMeHUiyOMAY9-9" value="" style="edgeStyle=orthogonalEdgeStyle;rounded=0;orthogonalLoop=1;jettySize=auto;html=1;" edge="1" parent="WIyWlLk6GJQsqaUBKTNV-1" source="5wo3lFajxMeHUiyOMAY9-4" target="5wo3lFajxMeHUiyOMAY9-6">
          <mxGeometry relative="1" as="geometry" />
        </mxCell>
        <mxCell id="5wo3lFajxMeHUiyOMAY9-4" value="FAZER UMA CONSULTA DE ADIMPLÊNCIA USANDO A API DO SPC(OU SIMILAR)&lt;div&gt;&lt;br&gt;&lt;/div&gt;" style="whiteSpace=wrap;html=1;rounded=1;" vertex="1" parent="WIyWlLk6GJQsqaUBKTNV-1">
          <mxGeometry x="447.5" y="260" width="165" height="90" as="geometry" />
        </mxCell>
        <mxCell id="5wo3lFajxMeHUiyOMAY9-8" value="" style="edgeStyle=orthogonalEdgeStyle;rounded=0;orthogonalLoop=1;jettySize=auto;html=1;" edge="1" parent="WIyWlLk6GJQsqaUBKTNV-1" source="5wo3lFajxMeHUiyOMAY9-6">
          <mxGeometry relative="1" as="geometry">
            <mxPoint x="681" y="440" as="targetPoint" />
          </mxGeometry>
        </mxCell>
        <mxCell id="5wo3lFajxMeHUiyOMAY9-12" value="" style="edgeStyle=orthogonalEdgeStyle;rounded=0;orthogonalLoop=1;jettySize=auto;html=1;" edge="1" parent="WIyWlLk6GJQsqaUBKTNV-1" source="5wo3lFajxMeHUiyOMAY9-6">
          <mxGeometry relative="1" as="geometry">
            <mxPoint x="370" y="440" as="targetPoint" />
          </mxGeometry>
        </mxCell>
        <mxCell id="5wo3lFajxMeHUiyOMAY9-6" value="ESTÁ ADIMPLENTE ?" style="rhombus;whiteSpace=wrap;html=1;" vertex="1" parent="WIyWlLk6GJQsqaUBKTNV-1">
          <mxGeometry x="457.5" y="390" width="145" height="100" as="geometry" />
        </mxCell>
        <mxCell id="5wo3lFajxMeHUiyOMAY9-10" value="SIM" style="text;html=1;align=center;verticalAlign=middle;whiteSpace=wrap;rounded=0;" vertex="1" parent="WIyWlLk6GJQsqaUBKTNV-1">
          <mxGeometry x="600" y="410" width="60" height="30" as="geometry" />
        </mxCell>
        <mxCell id="5wo3lFajxMeHUiyOMAY9-11" value="NÃO" style="text;html=1;align=center;verticalAlign=middle;whiteSpace=wrap;rounded=0;" vertex="1" parent="WIyWlLk6GJQsqaUBKTNV-1">
          <mxGeometry x="400" y="410" width="70" height="30" as="geometry" />
        </mxCell>
        <mxCell id="5wo3lFajxMeHUiyOMAY9-45" style="edgeStyle=orthogonalEdgeStyle;rounded=0;orthogonalLoop=1;jettySize=auto;html=1;exitX=1;exitY=0.5;exitDx=0;exitDy=0;entryX=0;entryY=0.5;entryDx=0;entryDy=0;" edge="1" parent="WIyWlLk6GJQsqaUBKTNV-1" source="5wo3lFajxMeHUiyOMAY9-17" target="5wo3lFajxMeHUiyOMAY9-23">
          <mxGeometry relative="1" as="geometry">
            <mxPoint x="840" y="440" as="targetPoint" />
          </mxGeometry>
        </mxCell>
        <mxCell id="5wo3lFajxMeHUiyOMAY9-46" style="edgeStyle=orthogonalEdgeStyle;rounded=0;orthogonalLoop=1;jettySize=auto;html=1;exitX=0.5;exitY=1;exitDx=0;exitDy=0;entryX=0.5;entryY=0;entryDx=0;entryDy=0;" edge="1" parent="WIyWlLk6GJQsqaUBKTNV-1" source="5wo3lFajxMeHUiyOMAY9-17" target="5wo3lFajxMeHUiyOMAY9-18">
          <mxGeometry relative="1" as="geometry" />
        </mxCell>
        <mxCell id="5wo3lFajxMeHUiyOMAY9-17" value="ESTÁ ATIVO ?" style="rhombus;whiteSpace=wrap;html=1;" vertex="1" parent="WIyWlLk6GJQsqaUBKTNV-1">
          <mxGeometry x="649" y="395" width="131" height="90" as="geometry" />
        </mxCell>
        <mxCell id="5wo3lFajxMeHUiyOMAY9-18" value="EXECUTAR UPDATE PARA ATIVAR O CLIENTE" style="rounded=1;whiteSpace=wrap;html=1;" vertex="1" parent="WIyWlLk6GJQsqaUBKTNV-1">
          <mxGeometry x="600" y="620" width="120" height="60" as="geometry" />
        </mxCell>
        <mxCell id="5wo3lFajxMeHUiyOMAY9-20" value="NÃO" style="text;html=1;align=center;verticalAlign=middle;whiteSpace=wrap;rounded=0;" vertex="1" parent="WIyWlLk6GJQsqaUBKTNV-1">
          <mxGeometry x="649" y="520" width="60" height="30" as="geometry" />
        </mxCell>
        <mxCell id="5wo3lFajxMeHUiyOMAY9-22" value="SIM" style="text;html=1;align=center;verticalAlign=middle;whiteSpace=wrap;rounded=0;" vertex="1" parent="WIyWlLk6GJQsqaUBKTNV-1">
          <mxGeometry x="780" y="405" width="60" height="30" as="geometry" />
        </mxCell>
        <mxCell id="5wo3lFajxMeHUiyOMAY9-23" value="O STATUS NÃO SERÁ ALTERADO&amp;nbsp;" style="rounded=1;whiteSpace=wrap;html=1;" vertex="1" parent="WIyWlLk6GJQsqaUBKTNV-1">
          <mxGeometry x="840" y="555" width="120" height="60" as="geometry" />
        </mxCell>
        <mxCell id="5wo3lFajxMeHUiyOMAY9-42" style="edgeStyle=orthogonalEdgeStyle;rounded=0;orthogonalLoop=1;jettySize=auto;html=1;exitX=0.5;exitY=1;exitDx=0;exitDy=0;entryX=0.5;entryY=0;entryDx=0;entryDy=0;" edge="1" parent="WIyWlLk6GJQsqaUBKTNV-1" source="5wo3lFajxMeHUiyOMAY9-33" target="5wo3lFajxMeHUiyOMAY9-34">
          <mxGeometry relative="1" as="geometry">
            <mxPoint x="343" y="540" as="targetPoint" />
          </mxGeometry>
        </mxCell>
        <mxCell id="5wo3lFajxMeHUiyOMAY9-33" value="ESTÁ ATIVO ?" style="rhombus;whiteSpace=wrap;html=1;" vertex="1" parent="WIyWlLk6GJQsqaUBKTNV-1">
          <mxGeometry x="277.5" y="397.5" width="131" height="85" as="geometry" />
        </mxCell>
        <mxCell id="5wo3lFajxMeHUiyOMAY9-34" value="EXECUTAR UPDATE PARA INATIVAR O CLIENTE" style="rounded=1;whiteSpace=wrap;html=1;" vertex="1" parent="WIyWlLk6GJQsqaUBKTNV-1">
          <mxGeometry x="340" y="620" width="120" height="60" as="geometry" />
        </mxCell>
        <mxCell id="5wo3lFajxMeHUiyOMAY9-36" value="SIM" style="text;html=1;align=center;verticalAlign=middle;whiteSpace=wrap;rounded=0;" vertex="1" parent="WIyWlLk6GJQsqaUBKTNV-1">
          <mxGeometry x="340" y="530" width="60" height="30" as="geometry" />
        </mxCell>
        <mxCell id="5wo3lFajxMeHUiyOMAY9-52" style="edgeStyle=orthogonalEdgeStyle;rounded=0;orthogonalLoop=1;jettySize=auto;html=1;exitX=0;exitY=0.5;exitDx=0;exitDy=0;entryX=1;entryY=0.5;entryDx=0;entryDy=0;" edge="1" parent="WIyWlLk6GJQsqaUBKTNV-1" source="5wo3lFajxMeHUiyOMAY9-33" target="5wo3lFajxMeHUiyOMAY9-48">
          <mxGeometry relative="1" as="geometry" />
        </mxCell>
        <mxCell id="5wo3lFajxMeHUiyOMAY9-47" value="NÃO" style="text;html=1;align=center;verticalAlign=middle;whiteSpace=wrap;rounded=0;" vertex="1" parent="WIyWlLk6GJQsqaUBKTNV-1">
          <mxGeometry x="220" y="410" width="70" height="30" as="geometry" />
        </mxCell>
        <mxCell id="5wo3lFajxMeHUiyOMAY9-48" value="O STATUS NÃO SERÁ ALTERADO&amp;nbsp;" style="rounded=1;whiteSpace=wrap;html=1;" vertex="1" parent="WIyWlLk6GJQsqaUBKTNV-1">
          <mxGeometry x="70" y="540" width="120" height="60" as="geometry" />
        </mxCell>
      </root>
    </mxGraphModel>
  </diagram>
</mxfile>
